<svg width="76" height="21" viewBox="0 0 76 21" fill="none" xmlns="http://www.w3.org/2000/svg">
<path fill-rule="evenodd" clip-rule="evenodd" d="M6.24037 16.5589C4.93119 16.5589 3.81114 16.3642 2.88017 15.975C1.9492 15.5858 1.24371 15.074 0.763681 14.4397C0.283651 13.8054 0.0290928 13.1134 0 12.3637C0 12.2484 0.0436385 12.1439 0.130917 12.0502C0.218195 11.9565 0.327291 11.9096 0.458209 11.9096H2.44378C2.60379 11.9096 2.73471 11.9457 2.83653 12.0178C2.93835 12.0898 3.0329 12.1908 3.12018 12.3205C3.26565 12.8106 3.59657 13.2215 4.11297 13.5531C4.62936 13.8847 5.33849 14.0504 6.24037 14.0504C7.25861 14.0504 8.02592 13.8811 8.54232 13.5423C9.05871 13.2035 9.31691 12.7386 9.31691 12.1475C9.31691 11.7583 9.18599 11.4339 8.92416 11.1744C8.66232 10.9149 8.26594 10.6879 7.735 10.4932C7.20406 10.2986 6.41493 10.0644 5.36759 9.79046C3.65111 9.3868 2.39287 8.85341 1.59282 8.19026C0.79277 7.52711 0.39275 6.57566 0.39275 5.33586C0.39275 4.49972 0.625489 3.75369 1.09097 3.09775C1.55646 2.44181 2.22194 1.92643 3.08745 1.55161C3.95296 1.17679 4.96028 0.98938 6.10945 0.98938C7.3168 0.98938 8.36049 1.19841 9.24054 1.61648C10.1206 2.03455 10.7897 2.55714 11.2479 3.18424C11.7061 3.81135 11.9498 4.43484 11.9789 5.05474C11.9789 5.17007 11.9352 5.27459 11.848 5.36829C11.7607 5.462 11.6516 5.50885 11.5207 5.50885H9.44783C9.12781 5.50885 8.90961 5.37911 8.79324 5.11962C8.72051 4.6583 8.43686 4.27267 7.94228 3.96272C7.44771 3.65277 6.83677 3.4978 6.10945 3.4978C5.3094 3.4978 4.68028 3.64916 4.22207 3.9519C3.76385 4.25465 3.53475 4.69434 3.53475 5.27099C3.53475 5.66022 3.65112 5.98458 3.88386 6.24408C4.11661 6.50357 4.48026 6.73062 4.97484 6.92524C5.46941 7.11986 6.18945 7.33971 7.13496 7.58478C8.42959 7.87311 9.45873 8.19747 10.2224 8.55787C10.9861 8.91828 11.5498 9.37239 11.9134 9.9202C12.2771 10.468 12.4589 11.1672 12.4589 12.0178C12.4589 12.9548 12.2007 13.7657 11.6843 14.4505C11.1679 15.1353 10.4406 15.6578 9.50237 16.0182C8.56413 16.3787 7.47681 16.5589 6.24037 16.5589ZM14.0981 3.93569C13.9526 3.93569 13.829 3.88523 13.7272 3.78432C13.6253 3.6834 13.5744 3.56087 13.5744 3.4167V1.83813C13.5744 1.67955 13.6253 1.54981 13.7272 1.4489C13.829 1.34798 13.9526 1.29753 14.0981 1.29753H16.1055C16.2655 1.29753 16.3964 1.34798 16.4982 1.4489C16.6001 1.54981 16.651 1.67955 16.651 1.83813V3.4167C16.651 3.56087 16.5964 3.6834 16.4873 3.78432C16.3782 3.88523 16.251 3.93569 16.1055 3.93569H14.0981ZM14.1854 16.3426C14.0399 16.3426 13.9163 16.2922 13.8144 16.1912C13.7126 16.0903 13.6617 15.9678 13.6617 15.8236V5.61697C13.6617 5.45839 13.7126 5.33225 13.8144 5.23855C13.9163 5.14484 14.0399 5.09799 14.1854 5.09799H16.04C16.1855 5.09799 16.3091 5.14845 16.411 5.24936C16.5128 5.35027 16.5637 5.47281 16.5637 5.61697V15.8236C16.5637 15.9678 16.5128 16.0903 16.411 16.1912C16.3091 16.2922 16.1855 16.3426 16.04 16.3426H14.1854ZM18.6038 16.3426C18.4584 16.3426 18.3347 16.2922 18.2329 16.1912C18.1311 16.0903 18.0801 15.9678 18.0801 15.8236V5.61697C18.0801 5.45839 18.1311 5.33225 18.2329 5.23855C18.3347 5.14484 18.4584 5.09799 18.6038 5.09799H20.4148C20.5748 5.09799 20.7021 5.14484 20.7967 5.23855C20.8912 5.33225 20.9385 5.45839 20.9385 5.61697V6.50357C21.8258 5.42235 23.0404 4.88175 24.5823 4.88175C25.9206 4.88175 26.9825 5.31423 27.768 6.1792C28.5535 7.04418 28.9462 8.2335 28.9462 9.74721V15.8236C28.9462 15.9678 28.899 16.0903 28.8044 16.1912C28.7099 16.2922 28.5826 16.3426 28.4226 16.3426H26.4588C26.3134 16.3426 26.1897 16.2922 26.0879 16.1912C25.9861 16.0903 25.9352 15.9678 25.9352 15.8236V9.87695C25.9352 9.04081 25.7279 8.38849 25.3133 7.91996C24.8987 7.45143 24.306 7.21717 23.535 7.21717C22.7931 7.21717 22.1968 7.45503 21.7458 7.93077C21.2949 8.40651 21.0694 9.05523 21.0694 9.87695V15.8236C21.0694 15.9678 21.0221 16.0903 20.9276 16.1912C20.833 16.2922 20.7058 16.3426 20.5457 16.3426H18.6038ZM33.9893 16.5589C33.2474 16.5589 32.5674 16.4111 31.9491 16.1156C31.3309 15.82 30.8436 15.42 30.4872 14.9154C30.1309 14.4108 29.9527 13.8558 29.9527 13.2503C29.9527 12.27 30.3527 11.4772 31.1527 10.8717C31.9528 10.2662 33.051 9.85533 34.4475 9.63909L37.4367 9.2066V8.75249C37.4367 8.13259 37.2767 7.66407 36.9567 7.34691C36.6367 7.02976 36.1276 6.87118 35.4293 6.87118C34.9493 6.87118 34.5638 6.95768 34.2729 7.13067C33.982 7.30367 33.7456 7.48026 33.5638 7.66047L33.2038 8.01727C33.1456 8.19026 33.0365 8.27676 32.8765 8.27676H31.1746C31.0436 8.27676 30.9309 8.23351 30.8364 8.14701C30.7418 8.06052 30.6945 7.94519 30.6945 7.80102C30.7091 7.44062 30.8873 7.03337 31.2291 6.57925C31.5709 6.12514 32.0982 5.7287 32.811 5.38992C33.5238 5.05114 34.4038 4.88175 35.4512 4.88175C37.1676 4.88175 38.4186 5.26377 39.2041 6.02783C39.9896 6.7919 40.3824 7.79381 40.3824 9.03361V15.8236C40.3824 15.9678 40.3351 16.0903 40.2405 16.1912C40.146 16.2922 40.0187 16.3426 39.8587 16.3426H38.0477C37.9022 16.3426 37.7786 16.2922 37.6768 16.1912C37.5749 16.0903 37.524 15.9678 37.524 15.8236V14.9803C37.204 15.4416 36.7531 15.82 36.1712 16.1156C35.5894 16.4111 34.862 16.5589 33.9893 16.5589ZM34.7311 14.4829C35.5312 14.4829 36.1858 14.2234 36.6949 13.7044C37.204 13.1855 37.4586 12.4358 37.4586 11.4555V11.023L35.2766 11.369C33.6038 11.6285 32.7674 12.1835 32.7674 13.0341C32.7674 13.4954 32.9601 13.8522 33.3456 14.1045C33.7311 14.3568 34.1929 14.4829 34.7311 14.4829ZM42.0134 16.3426C41.8825 16.3426 41.7697 16.2958 41.6752 16.2021C41.5806 16.1083 41.5333 15.9966 41.5333 15.8669C41.5333 15.7371 41.577 15.6146 41.6643 15.4993L45.3954 10.5689L41.9479 5.94134C41.8606 5.82601 41.817 5.70347 41.817 5.57373C41.817 5.44398 41.8643 5.33225 41.9588 5.23855C42.0534 5.14484 42.1661 5.09799 42.297 5.09799H44.2171C44.3771 5.09799 44.4972 5.13043 44.5772 5.1953C44.6572 5.26017 44.7408 5.35027 44.8281 5.4656L47.2719 8.68762L49.6938 5.4656C49.7084 5.45119 49.7629 5.38632 49.8575 5.27099C49.952 5.15566 50.1011 5.09799 50.3048 5.09799H52.1594C52.2903 5.09799 52.3994 5.14484 52.4867 5.23855C52.574 5.33225 52.6176 5.43677 52.6176 5.5521C52.6176 5.69626 52.574 5.82601 52.4867 5.94134L48.9956 10.5906L52.7485 15.4993C52.8358 15.6146 52.8795 15.7371 52.8795 15.8669C52.8795 15.9966 52.8322 16.1083 52.7376 16.2021C52.6431 16.2958 52.5304 16.3426 52.3994 16.3426H50.392C50.1593 16.3426 49.9629 16.2273 49.8029 15.9966L47.1846 12.58L44.5444 15.9966C44.3844 16.2273 44.188 16.3426 43.9553 16.3426H42.0134ZM56.1906 20.4512C56.0742 20.4512 55.9687 20.408 55.8742 20.3215C55.7796 20.235 55.7324 20.1341 55.7324 20.0187C55.7324 19.9178 55.7614 19.8025 55.8196 19.6727L57.5434 15.6723L53.354 5.87646C53.2958 5.74672 53.2668 5.64581 53.2668 5.57373C53.2813 5.44398 53.3322 5.33225 53.4195 5.23855C53.5068 5.14484 53.6159 5.09799 53.7468 5.09799H55.5578C55.8196 5.09799 56.0087 5.23494 56.1251 5.50885L59.0271 12.5584L61.9727 5.50885C62.1182 5.23494 62.3218 5.09799 62.5837 5.09799H64.351C64.482 5.09799 64.5911 5.14124 64.6783 5.22774C64.7656 5.31423 64.8092 5.41515 64.8092 5.53048C64.8092 5.63139 64.7802 5.74672 64.722 5.87646L58.5471 20.0404C58.4307 20.3143 58.2271 20.4512 57.9361 20.4512H56.1906ZM69.9832 16.5589C68.8777 16.5589 67.954 16.3931 67.2121 16.0615C66.4703 15.7299 65.9211 15.3443 65.5648 14.9046C65.2084 14.4649 65.0302 14.0865 65.0302 13.7693C65.0302 13.6252 65.0774 13.5098 65.172 13.4233C65.2666 13.3368 65.3793 13.2936 65.5102 13.2936H67.2994C67.4158 13.2936 67.5176 13.3513 67.6049 13.4666C67.6776 13.5242 67.8412 13.6612 68.0958 13.8774C68.3504 14.0937 68.6413 14.2631 68.9686 14.3856C69.2959 14.5082 69.6559 14.5694 70.0486 14.5694C70.6305 14.5694 71.1033 14.4577 71.4669 14.2342C71.8306 14.0108 72.0124 13.69 72.0124 13.272C72.0124 12.9836 71.9288 12.7494 71.7615 12.5692C71.5942 12.389 71.296 12.2232 70.8669 12.0718C70.4378 11.9204 69.7941 11.7511 68.9359 11.5636C67.6994 11.3042 66.7866 10.9077 66.1975 10.3743C65.6084 9.84091 65.3138 9.13453 65.3138 8.25513C65.3138 7.67848 65.4884 7.13428 65.8375 6.6225C66.1866 6.11072 66.7066 5.69266 67.3976 5.36829C68.0885 5.04393 68.914 4.88175 69.8741 4.88175C70.8632 4.88175 71.7142 5.03672 72.427 5.34667C73.1397 5.65662 73.6816 6.02783 74.0525 6.46032C74.4234 6.89281 74.6089 7.27483 74.6089 7.60641C74.6089 7.73615 74.5616 7.84788 74.4671 7.94158C74.3725 8.03529 74.2598 8.08214 74.1289 8.08214H72.4924C72.3324 8.08214 72.2088 8.02448 72.1215 7.90915C72.0197 7.83706 71.856 7.70372 71.6306 7.5091C71.4051 7.31448 71.1542 7.15951 70.8778 7.04418C70.6014 6.92885 70.2668 6.87118 69.8741 6.87118C69.3359 6.87118 68.9213 6.98651 68.6304 7.21717C68.3395 7.44783 68.194 7.75057 68.194 8.12539C68.194 8.38488 68.2631 8.60112 68.4013 8.77412C68.5395 8.94711 68.8195 9.10929 69.2413 9.26066C69.6632 9.41203 70.2959 9.56701 71.1396 9.72558C73.758 10.2302 75.0671 11.3618 75.0671 13.1206C75.0671 14.1441 74.6198 14.9731 73.7252 15.6074C72.8306 16.2417 71.5833 16.5589 69.9832 16.5589Z" fill="white"/>
</svg>
