<svg width="12" height="12" viewBox="0 0 12 12" fill="none" xmlns="http://www.w3.org/2000/svg">
<path d="M0.75 3.875C0.75 3.66789 0.910262 3.5 1.10795 3.5H10.892C11.0897 3.5 11.25 3.66789 11.25 3.875C11.25 4.08211 11.0897 4.25 10.892 4.25H1.10795C0.910262 4.25 0.75 4.08211 0.75 3.875Z" fill="#542AEF"/>
<path d="M0.75 6.125C0.75 5.91789 0.910262 5.75 1.10795 5.75H10.892C11.0897 5.75 11.25 5.91789 11.25 6.125C11.25 6.33211 11.0897 6.5 10.892 6.5H1.10795C0.910262 6.5 0.75 6.33211 0.75 6.125Z" fill="#542AEF"/>
<path d="M0.75 8.375C0.75 8.16789 0.910262 8 1.10795 8H10.892C11.0897 8 11.25 8.16789 11.25 8.375C11.25 8.58211 11.0897 8.75 10.892 8.75H1.10795C0.910262 8.75 0.75 8.58211 0.75 8.375Z" fill="#542AEF"/>
</svg>
