<svg width="24" height="24" viewBox="0 0 24 24" fill="none" xmlns="http://www.w3.org/2000/svg">
<path fill-rule="evenodd" clip-rule="evenodd" d="M10.4247 16.45C10.5791 16.4499 10.7319 16.4802 10.8745 16.5392C11.0172 16.5983 11.1467 16.6848 11.2559 16.7939C11.3651 16.903 11.4517 17.0326 11.5108 17.1752C11.5676 17.3123 11.5979 17.4588 11.6001 17.6071C11.5999 17.6131 11.5999 17.6191 11.5999 17.6251C11.5999 17.6311 11.5999 17.6371 11.6001 17.6431C11.5966 17.8691 11.528 18.0895 11.4023 18.2777C11.2732 18.4709 11.0897 18.6215 10.875 18.7105C10.6603 18.7994 10.4241 18.8227 10.1962 18.7774C9.96829 18.7321 9.75893 18.6203 9.59458 18.456C9.43023 18.2917 9.31828 18.0824 9.27289 17.8545C9.25835 17.7815 9.25085 17.7077 9.25028 17.634C9.25032 17.6311 9.25034 17.6281 9.25034 17.6251C9.25034 17.6221 9.25032 17.6191 9.25028 17.6161C9.25141 17.4656 9.28144 17.3161 9.33954 17.1757C9.42839 16.9609 9.57891 16.7774 9.77207 16.6482C9.96523 16.5191 10.1924 16.4501 10.4247 16.45ZM8.08212 17.0001C8.10947 16.8976 8.14363 16.7965 8.18453 16.6977C8.36791 16.2546 8.67856 15.8758 9.0772 15.6092C9.47585 15.3426 9.94459 15.2002 10.4242 15.2C10.7427 15.1998 11.0582 15.2624 11.3525 15.3842C11.6468 15.506 11.9143 15.6846 12.1396 15.9098C12.3649 16.135 12.5436 16.4024 12.6656 16.6967C12.7066 16.7957 12.7409 16.897 12.7684 17.0001H18.0249C18.37 17.0001 18.6499 17.2799 18.6499 17.6251C18.6499 17.9703 18.37 18.2501 18.0249 18.2501H12.7683C12.7001 18.5057 12.5902 18.7498 12.4416 18.9721C12.1752 19.3709 11.7965 19.6817 11.3535 19.8653C10.9105 20.0488 10.4229 20.0969 9.95255 20.0034C9.48217 19.91 9.05008 19.6791 8.71089 19.3401C8.40845 19.0378 8.19198 18.6615 8.08221 18.2501H6.22534C5.88016 18.2501 5.60034 17.9703 5.60034 17.6251C5.60034 17.2799 5.88016 17.0001 6.22534 17.0001H8.08212Z" fill="white"/>
<path fill-rule="evenodd" clip-rule="evenodd" d="M8.92472 5.44995C9.07907 5.44988 9.23192 5.48022 9.37454 5.53924C9.51715 5.59826 9.64675 5.6848 9.75591 5.79392C9.86508 5.90303 9.95167 6.03259 10.0108 6.17518C10.0676 6.31226 10.0979 6.4588 10.1001 6.60705C10.0999 6.61306 10.0999 6.61908 10.0999 6.62512C10.0999 6.63113 10.0999 6.63711 10.1001 6.64307C10.0966 6.86911 10.028 7.0895 9.90226 7.27769C9.77317 7.47091 9.58969 7.62151 9.37502 7.71046C9.16035 7.79941 8.92412 7.82271 8.69621 7.77741C8.46829 7.73212 8.25893 7.62026 8.09458 7.45599C7.93023 7.29171 7.81828 7.0824 7.77289 6.8545C7.75835 6.78154 7.75085 6.70772 7.75028 6.63403C7.75032 6.63107 7.75034 6.6281 7.75034 6.62512C7.75034 6.62211 7.75032 6.6191 7.75028 6.6161C7.75141 6.46565 7.78144 6.31605 7.83954 6.17566C7.92839 5.96095 8.07891 5.7774 8.27207 5.64823C8.46523 5.51906 8.69235 5.45006 8.92472 5.44995ZM6.58212 6.00012C6.60947 5.89756 6.64363 5.79652 6.68453 5.69769C6.86791 5.25456 7.17856 4.87575 7.5772 4.60916C7.97585 4.34257 8.44459 4.20017 8.92417 4.19995C9.24271 4.19981 9.55817 4.26243 9.85251 4.38423C10.1468 4.50604 10.4143 4.68464 10.6396 4.90984C10.8649 5.13503 11.0436 5.40241 11.1656 5.6967C11.2066 5.79567 11.2409 5.89705 11.2684 6.00012H18.0249C18.37 6.00012 18.6499 6.27994 18.6499 6.62512C18.6499 6.9703 18.37 7.25012 18.0249 7.25012H11.2683C11.2001 7.5057 11.0902 7.74979 10.9416 7.9721C10.6752 8.37086 10.2965 8.68168 9.8535 8.86526C9.41045 9.04883 8.92292 9.09692 8.45255 9.00344C7.98217 8.90995 7.55008 8.6791 7.21089 8.34007C6.90845 8.03775 6.69198 7.66153 6.58221 7.25012H6.22534C5.88016 7.25012 5.60034 6.9703 5.60034 6.62512C5.60034 6.27994 5.88016 6.00012 6.22534 6.00012H6.58212Z" fill="white"/>
<path fill-rule="evenodd" clip-rule="evenodd" d="M17.1536 9.88477C16.7105 9.70119 16.223 9.65311 15.7526 9.74659C15.2822 9.84007 14.8501 10.0709 14.5109 10.41C14.2085 10.7123 13.992 11.0885 13.8823 11.4999H6.22534C5.88016 11.4999 5.60034 11.7797 5.60034 12.1249C5.60034 12.4701 5.88016 12.7499 6.22534 12.7499H13.8822C13.9095 12.8525 13.9437 12.9535 13.9846 13.0523C14.168 13.4955 14.4786 13.8743 14.8773 14.1409C15.2759 14.4075 15.7446 14.5499 16.2242 14.5501C16.8674 14.5501 17.4845 14.2946 17.9394 13.84C18.3943 13.3853 18.65 12.7685 18.6503 12.1254C18.6503 11.6458 18.5081 11.1767 18.2417 10.7779C17.9753 10.3792 17.5966 10.0683 17.1536 9.88477ZM15.0503 12.1313C15.0511 12.2826 15.0811 12.4331 15.1396 12.5744C15.2284 12.7891 15.379 12.9726 15.5721 13.1018C15.7653 13.231 15.9924 13.3 16.2247 13.3001L17.4003 12.1248C17.4002 11.8925 17.3313 11.6655 17.2023 11.4723C17.0732 11.2791 16.8897 11.1285 16.6751 11.0396C16.4604 10.9506 16.2242 10.9273 15.9963 10.9726C15.7683 11.0179 15.559 11.1298 15.3946 11.294C15.2303 11.4583 15.1183 11.6676 15.0729 11.8955C15.0582 11.9694 15.0507 12.0441 15.0503 12.1186C15.0503 12.1207 15.0503 12.1228 15.0503 12.1249C15.0503 12.127 15.0503 12.1291 15.0503 12.1313ZM17.0557 12.9559C17.2762 12.7355 17.4001 12.4365 17.4003 12.1248L16.2247 13.3001C16.5364 13.3 16.8353 13.1762 17.0557 12.9559Z" fill="white"/>
</svg>
