<svg width="24" height="24" viewBox="0 0 24 24" fill="none" xmlns="http://www.w3.org/2000/svg">
<path fill-rule="evenodd" clip-rule="evenodd" d="M4.95292 4.8901C6.82936 3.03032 9.36694 1.99092 12.0088 1.99994C14.6476 1.99564 17.1806 3.03712 19.0532 4.89639C20.9262 6.75605 21.9858 9.28223 21.9999 11.9216L21.9999 11.9301C21.9852 13.7286 21.486 15.49 20.555 17.0289C19.6239 18.5677 18.2954 19.8273 16.7091 20.675C15.1227 21.5227 13.3373 21.9273 11.5405 21.8462C9.84408 21.7696 8.19673 21.2627 6.75265 20.3755L3.43052 21.429C3.20604 21.5002 2.96061 21.4392 2.79562 21.2712C2.63064 21.1031 2.5741 20.8566 2.64937 20.6335L3.71423 17.477C2.59541 15.8442 1.99618 13.9082 1.99992 11.9238L1.99993 11.9216C2.01404 9.27915 3.07609 6.75027 4.95292 4.8901ZM12.0083 2.62503L12.006 3.24993C9.69468 3.24166 7.4745 4.15085 5.83286 5.77792C4.19147 7.40473 3.26254 9.61627 3.24991 11.9272C3.2467 13.7538 3.82911 15.5333 4.91166 17.0045C5.03248 17.1687 5.06563 17.3815 5.00046 17.5747L4.2279 19.8648L6.65265 19.0958C6.83198 19.039 7.02738 19.0659 7.18463 19.1692C8.50032 20.0331 10.0245 20.5265 11.5969 20.5975C13.1693 20.6685 14.7317 20.3144 16.1199 19.5726C17.5081 18.8307 18.6707 17.7285 19.4855 16.3818C20.2995 15.0363 20.7363 13.4965 20.7499 11.924C20.7364 9.61694 19.8098 7.40904 18.1725 5.78342C16.5342 4.1568 14.318 3.24579 12.0094 3.24994L12.0083 2.62503Z" fill="#696D91"/>
</svg>
