<svg width="24" height="24" viewBox="0 0 24 24" fill="none" xmlns="http://www.w3.org/2000/svg">
<path fill-rule="evenodd" clip-rule="evenodd" d="M9 4.01501C8.80109 4.01501 8.61032 4.09403 8.46967 4.23468C8.32902 4.37534 8.25 4.5661 8.25 4.76501V6.76501C8.25 7.17923 7.91421 7.51501 7.5 7.51501C7.08579 7.51501 6.75 7.17923 6.75 6.76501V4.76501C6.75 4.16828 6.98705 3.59598 7.40901 3.17402C7.83097 2.75207 8.40326 2.51501 9 2.51501H15C15.5967 2.51501 16.169 2.75207 16.591 3.17402C17.0129 3.59598 17.25 4.16828 17.25 4.76501V6.76501C17.25 7.17923 16.9142 7.51501 16.5 7.51501C16.0858 7.51501 15.75 7.17923 15.75 6.76501V4.76501C15.75 4.5661 15.671 4.37534 15.5303 4.23468C15.3897 4.09403 15.1989 4.01501 15 4.01501H9Z" fill="#542AEF"/>
<path fill-rule="evenodd" clip-rule="evenodd" d="M3.19501 6.25H20.24C20.9694 6.25 21.6688 6.53973 22.1846 7.05546C22.7003 7.57118 22.99 8.27065 22.99 9V17.905C22.99 18.5017 22.753 19.074 22.331 19.496C21.909 19.9179 21.3367 20.155 20.74 20.155H3.19501C2.59827 20.155 2.02597 19.9179 1.60402 19.496C1.18206 19.074 0.945007 18.5017 0.945007 17.905V8.5C0.945007 7.90326 1.18206 7.33097 1.60402 6.90901C2.02597 6.48705 2.59827 6.25 3.19501 6.25ZM12.75 10.245C12.75 9.83078 12.4142 9.495 12 9.495C11.5858 9.495 11.25 9.83078 11.25 10.245V12.495H9C8.58579 12.495 8.25 12.8308 8.25 13.245C8.25 13.6592 8.58579 13.995 9 13.995H11.25V16.245C11.25 16.6592 11.5858 16.995 12 16.995C12.4142 16.995 12.75 16.6592 12.75 16.245V13.995H15C15.4142 13.995 15.75 13.6592 15.75 13.245C15.75 12.8308 15.4142 12.495 15 12.495H12.75V10.245Z" fill="#542AEF"/>
</svg>
