<svg width="24" height="24" viewBox="0 0 24 24" fill="none" xmlns="http://www.w3.org/2000/svg">
<path fill-rule="evenodd" clip-rule="evenodd" d="M9.52513 4.77513C10.1815 4.11875 11.0717 3.75 12 3.75C12.9283 3.75 13.8185 4.11875 14.4749 4.77513C15.1313 5.4315 15.5 6.32174 15.5 7.25C15.5 8.17826 15.1313 9.0685 14.4749 9.72487C13.8185 10.3813 12.9283 10.75 12 10.75C11.0717 10.75 10.1815 10.3813 9.52513 9.72487C8.86875 9.0685 8.5 8.17826 8.5 7.25C8.5 6.32174 8.86875 5.4315 9.52513 4.77513ZM12 5.25C11.4696 5.25 10.9609 5.46071 10.5858 5.83579C10.2107 6.21086 10 6.71957 10 7.25C10 7.78043 10.2107 8.28914 10.5858 8.66421C10.9609 9.03929 11.4696 9.25 12 9.25C12.5304 9.25 13.0391 9.03929 13.4142 8.66421C13.7893 8.28914 14 7.78043 14 7.25C14 6.71957 13.7893 6.21086 13.4142 5.83579C13.0391 5.46071 12.5304 5.25 12 5.25Z" fill="#626793"/>
<path fill-rule="evenodd" clip-rule="evenodd" d="M9.03899 11.8515C9.8243 11.0662 10.8894 10.625 12 10.625C13.1106 10.625 14.1757 11.0662 14.961 11.8515C15.7463 12.6368 16.1875 13.7019 16.1875 14.8125V16.875C16.1875 17.2892 15.8517 17.625 15.4375 17.625H8.5625C8.14829 17.625 7.8125 17.2892 7.8125 16.875V14.8125C7.8125 13.7019 8.25368 12.6368 9.03899 11.8515ZM12 12.125C11.2872 12.125 10.6037 12.4081 10.0997 12.9122C9.59565 13.4162 9.3125 14.0997 9.3125 14.8125V16.125H14.6875V14.8125C14.6875 14.0997 14.4044 13.4162 13.9003 12.9122C13.3963 12.4081 12.7128 12.125 12 12.125Z" fill="#626793"/>
<path fill-rule="evenodd" clip-rule="evenodd" d="M3.13626 7.32376C3.66371 6.79632 4.37908 6.5 5.125 6.5C5.87092 6.5 6.58629 6.79632 7.11374 7.32376C7.64118 7.85121 7.9375 8.56658 7.9375 9.3125C7.9375 10.0584 7.64118 10.7738 7.11374 11.3012C6.58629 11.8287 5.87092 12.125 5.125 12.125C4.37908 12.125 3.66371 11.8287 3.13626 11.3012C2.60882 10.7738 2.3125 10.0584 2.3125 9.3125C2.3125 8.56658 2.60882 7.85121 3.13626 7.32376ZM5.125 8C4.7769 8 4.44306 8.13828 4.19692 8.38442C3.95078 8.63056 3.8125 8.9644 3.8125 9.3125C3.8125 9.6606 3.95078 9.99444 4.19692 10.2406C4.44306 10.4867 4.7769 10.625 5.125 10.625C5.4731 10.625 5.80694 10.4867 6.05308 10.2406C6.29922 9.99444 6.4375 9.6606 6.4375 9.3125C6.4375 8.9644 6.29922 8.63056 6.05308 8.38442C5.80694 8.13828 5.4731 8 5.125 8Z" fill="#626793"/>
<path fill-rule="evenodd" clip-rule="evenodd" d="M4.50583 12.0473C5.16306 11.9486 5.83433 12.0077 6.46421 12.2197C6.85679 12.3518 7.06794 12.7772 6.93583 13.1697C6.80372 13.5623 6.37837 13.7735 5.98579 13.6414C5.58139 13.5053 5.15042 13.4673 4.72846 13.5307C4.3065 13.594 3.90566 13.7568 3.55902 14.0056C3.21239 14.2544 2.92991 14.5821 2.7349 14.9616C2.54954 15.3223 2.44827 15.72 2.43831 16.1249H5.25C5.66421 16.1249 6 16.4607 6 16.8749C6 17.2892 5.66421 17.6249 5.25 17.6249H1.6875C1.27329 17.6249 0.9375 17.2892 0.9375 16.8749L0.9375 16.1866C0.938207 15.5221 1.09698 14.8672 1.40072 14.276C1.70446 13.6849 2.14444 13.1745 2.68435 12.787C3.22426 12.3995 3.8486 12.1459 4.50583 12.0473Z" fill="#626793"/>
<path fill-rule="evenodd" clip-rule="evenodd" d="M16.8863 7.32376C17.4137 6.79632 18.1291 6.5 18.875 6.5C19.6209 6.5 20.3363 6.79632 20.8637 7.32376C21.3912 7.85121 21.6875 8.56658 21.6875 9.3125C21.6875 10.0584 21.3912 10.7738 20.8637 11.3012C20.3363 11.8287 19.6209 12.125 18.875 12.125C18.1291 12.125 17.4137 11.8287 16.8863 11.3012C16.3588 10.7738 16.0625 10.0584 16.0625 9.3125C16.0625 8.56658 16.3588 7.85121 16.8863 7.32376ZM18.875 8C18.5269 8 18.1931 8.13828 17.9469 8.38442C17.7008 8.63056 17.5625 8.9644 17.5625 9.3125C17.5625 9.6606 17.7008 9.99444 17.9469 10.2406C18.1931 10.4867 18.5269 10.625 18.875 10.625C19.2231 10.625 19.5569 10.4867 19.8031 10.2406C20.0492 9.99444 20.1875 9.6606 20.1875 9.3125C20.1875 8.9644 20.0492 8.63056 19.8031 8.38442C19.5569 8.13828 19.2231 8 18.875 8Z" fill="#626793"/>
<path fill-rule="evenodd" clip-rule="evenodd" d="M19.2715 13.5307C18.8496 13.4673 18.4186 13.5053 18.0142 13.6414C17.6216 13.7735 17.1963 13.5623 17.0642 13.1697C16.9321 12.7772 17.1432 12.3518 17.5358 12.2197C18.1657 12.0077 18.8369 11.9486 19.4942 12.0473C20.1514 12.1459 20.7757 12.3995 21.3156 12.787C21.8556 13.1745 22.2955 13.6849 22.5993 14.276C22.903 14.8672 23.0618 15.5221 23.0625 16.1866L23.0625 16.1874L23.0625 16.8749C23.0625 17.2892 22.7267 17.6249 22.3125 17.6249H18.75C18.3358 17.6249 18 17.2892 18 16.8749C18 16.4607 18.3358 16.1249 18.75 16.1249H21.5617C21.5517 15.72 21.4505 15.3223 21.2651 14.9616C21.0701 14.5821 20.7876 14.2544 20.441 14.0056C20.0943 13.7568 19.6935 13.594 19.2715 13.5307Z" fill="#626793"/>
</svg>
