<svg width="24" height="24" viewBox="0 0 24 24" fill="none" xmlns="http://www.w3.org/2000/svg">
<path fill-rule="evenodd" clip-rule="evenodd" d="M10.1573 19.5253C10.4885 19.428 10.8358 19.6177 10.933 19.9489C11.0008 20.1799 11.1416 20.3827 11.3343 20.527C11.5271 20.6713 11.7613 20.7492 12.0021 20.7492C12.2428 20.7492 12.4771 20.6713 12.6698 20.527C12.8625 20.3827 13.0033 20.1799 13.0711 19.9489C13.1684 19.6177 13.5157 19.428 13.8469 19.5253C14.1781 19.6225 14.3677 19.9698 14.2705 20.301C14.1266 20.7911 13.8279 21.2215 13.4189 21.5276C13.01 21.8338 12.5129 21.9992 12.0021 21.9992C11.4912 21.9992 10.9942 21.8338 10.5852 21.5276C10.1763 21.2215 9.87751 20.7911 9.73363 20.301C9.6364 19.9698 9.82608 19.6225 10.1573 19.5253Z" fill="white"/>
<path fill-rule="evenodd" clip-rule="evenodd" d="M12 2C12.3452 2 12.625 2.27982 12.625 2.625V4.5C12.625 4.84518 12.3452 5.125 12 5.125C11.6548 5.125 11.375 4.84518 11.375 4.5V2.625C11.375 2.27982 11.6548 2 12 2Z" fill="white"/>
<path fill-rule="evenodd" clip-rule="evenodd" d="M12 5.125C10.5082 5.125 9.07742 5.71763 8.02253 6.77252C6.96764 7.82742 6.375 9.25816 6.375 10.75C6.375 13.4378 6.05682 15.2175 5.72445 16.3438C5.65066 16.5938 5.57617 16.8116 5.50433 17H18.4277C18.3782 16.8733 18.3284 16.7332 18.2793 16.5784C17.9411 15.5127 17.625 13.7253 17.625 10.75C17.625 9.25816 17.0324 7.82742 15.9775 6.77252C14.9226 5.71763 13.4918 5.125 12 5.125ZM12 3.875C10.1766 3.875 8.42796 4.59933 7.13864 5.88864C5.84933 7.17795 5.125 8.92664 5.125 10.75C5.125 13.3406 4.81819 14.9984 4.52556 15.99C4.37931 16.4856 4.2366 16.8148 4.13737 17.0114C4.08773 17.1097 4.04886 17.1751 4.0257 17.2117C4.01411 17.23 4.00643 17.2411 4.00327 17.2456C4.00286 17.2462 4.00252 17.2466 4.00227 17.247C3.85984 17.4345 3.83477 17.6865 3.93812 17.8987C4.04281 18.1136 4.26094 18.25 4.5 18.25H19.5C19.7652 18.25 20.0016 18.0826 20.0896 17.8324C20.1737 17.5932 20.1048 17.3282 19.9179 17.1603C19.9173 17.1596 19.9166 17.1588 19.9158 17.1579C19.9047 17.1452 19.8754 17.1098 19.8333 17.0431C19.749 16.9094 19.6136 16.6506 19.4707 16.2003C19.1839 15.2964 18.875 13.6464 18.875 10.75C18.875 8.92664 18.1507 7.17795 16.8614 5.88864C15.572 4.59933 13.8234 3.875 12 3.875ZM19.8939 17.1397L19.8939 17.1397L19.8926 17.1387C19.893 17.139 19.8935 17.1394 19.8939 17.1397ZM19.5 17.625L19.8912 17.1376C19.8917 17.138 19.8921 17.1383 19.8926 17.1387C19.8919 17.1381 19.8912 17.1376 19.5 17.625Z" fill="white"/>
</svg>
